<svg xmlns="http://www.w3.org/2000/svg" viewBox="0 0 32 32">
  <defs>
    <linearGradient id="g" x1="0%" y1="0%" x2="100%" y2="100%">
      <stop offset="0%" stop-color="#00f0ff"/>
      <stop offset="100%" stop-color="#8b5cf6"/>
    </linearGradient>
  </defs>
  <rect width="32" height="32" rx="8" fill="#080b1a"/>
  <path d="M16 8c-3.3 0-6 2.2-6.8 5.2C7.3 13.8 6 15.4 6 17.3 6 19.9 8.1 22 10.7 22h10.6c2.6 0 4.7-2.1 4.7-4.7 0-1.9-1.3-3.5-3.2-4.1C22 10.2 19.3 8 16 8z" fill="none" stroke="url(#g)" stroke-width="1.5"/>
  <circle cx="12" cy="17" r="1" fill="#00f0ff" opacity="0.8"/>
  <circle cx="16" cy="15" r="1" fill="#8b5cf6" opacity="0.8"/>
  <circle cx="20" cy="17" r="1" fill="#00f0ff" opacity="0.8"/>
  <line x1="12" y1="17" x2="16" y2="15" stroke="#00f0ff" stroke-width="0.5" opacity="0.5"/>
  <line x1="16" y1="15" x2="20" y2="17" stroke="#8b5cf6" stroke-width="0.5" opacity="0.5"/>
</svg>
